<?xml version="1.0" encoding="utf-8"?><svg viewBox="0 0 42 42" xmlns="http://www.w3.org/2000/svg" xmlns:xlink="http://www.w3.org/1999/xlink"><style>:root>svg{display:none}:root>svg:target{display:block}</style><svg fill="none" viewBox="0 0 41 41" id="Be" xmlns="http://www.w3.org/2000/svg"><g clip-path="url(#aclip0_179_211)" fill="#000" stroke="#000" stroke-width=".5"><path d="M34.235.217H5.875C2.636.217 0 2.845 0 6.077v28.28c0 3.231 2.636 5.86 5.876 5.86h28.36c3.24 0 5.875-2.629 5.875-5.86V6.077c0-3.232-2.636-5.86-5.876-5.86zm3.526 34.14a3.525 3.525 0 01-3.526 3.516H5.875a3.525 3.525 0 01-3.525-3.516V6.077A3.525 3.525 0 015.876 2.56h28.36a3.525 3.525 0 013.525 3.515v28.281z"/><path d="M18.88 16.701c0-2.585-2.108-4.687-4.7-4.687H7.13V28.42h7.05c2.592 0 4.7-2.103 4.7-4.688a4.67 4.67 0 00-1.596-3.515A4.67 4.67 0 0018.88 16.7zm-2.35 7.031a2.35 2.35 0 01-2.35 2.344h-4.7V21.39h4.7a2.35 2.35 0 012.35 2.343zm-7.05-4.687v-4.688h4.7a2.35 2.35 0 012.35 2.344 2.35 2.35 0 01-2.35 2.344h-4.7zM27.106 16.701c-3.24 0-5.875 2.629-5.875 5.86 0 3.23 2.635 5.859 5.875 5.859a5.9 5.9 0 005.09-2.929l-2.035-1.174a3.53 3.53 0 01-6.378-.585h9.199v-1.171c0-3.231-2.636-5.86-5.876-5.86zm-3.324 4.688a3.53 3.53 0 016.648 0h-6.648zM22.406 12.014h9.4v2.343h-9.4v-2.343z"/></g><defs><clipPath id="aclip0_179_211"><path fill="#fff" transform="translate(0 .217)" d="M0 0h40.111v40H0z"/></clipPath></defs></svg><svg fill="none" viewBox="0 0 40 40" id="Group_10" xmlns="http://www.w3.org/2000/svg"><path d="M19.554 0C8.781 0 0 8.98 0 19.999c0 11.019 8.78 19.999 19.554 19.999s19.554-8.98 19.554-19.999C39.108 8.98 30.328 0 19.554 0zm0 3.077c3.93 0 7.52 1.394 10.35 3.73-1.438 1.808-4.08 4.317-8.507 5.962-2.407-4.452-4.419-7.298-5.82-9.183a16.4 16.4 0 013.977-.51zm-6.957 1.586c1.176 1.548 3.3 4.462 5.829 9.019-6.496 1.74-12.362 1.856-14.807 1.779 1.307-4.808 4.616-8.74 8.978-10.798zm19.47 4.279a17.12 17.12 0 013.93 12.922c-.546-.077-.95-.144-1.646-.202a38.901 38.901 0 00-8.752.327 73.372 73.372 0 00-2.82-6.47c4.644-1.818 7.586-4.5 9.288-6.577zM19.855 16.47a73.96 73.96 0 012.726 6.135c-3.958 1.201-7.558 3.942-10.322 6.49a50.249 50.249 0 00-3.591 3.644 17.024 17.024 0 01-5.67-12.73c0-.51.039-.99.076-1.481 2.144.087 8.997.154 16.781-2.058zm9.956 8.173c2.312-.087 4.136.077 5.584.24a16.822 16.822 0 01-6.525 9.115c-.498-3.163-1.269-6.201-2.2-9.066a37.677 37.677 0 013.14-.289zm-6.149.846c1.072 3.163 1.918 6.538 2.398 10.077a16.347 16.347 0 01-6.515 1.355c-3.093 0-5.96-.875-8.433-2.365.837-.913 1.87-2.02 3.15-3.182 2.66-2.443 6.129-4.933 9.4-5.885z" fill="#090909"/></svg><svg fill="none" viewBox="0 0 21 20" id="Star" xmlns="http://www.w3.org/2000/svg"><path d="M9.603.86c.3-.92 1.602-.92 1.902 0l1.75 5.374a1 1 0 00.951.69h5.661c.97 0 1.372 1.241.587 1.81l-4.575 3.315a1 1 0 00-.364 1.12l1.748 5.366c.3.92-.753 1.688-1.537 1.12l-4.586-3.323a1 1 0 00-1.173 0l-4.586 3.322c-.784.569-1.837-.198-1.537-1.12l1.748-5.366a1 1 0 00-.364-1.12L.653 8.735c-.785-.569-.382-1.81.587-1.81h5.661a1 1 0 00.95-.69L9.604.86z" fill="#E5E5E5"/></svg><svg fill="none" viewBox="0 0 22 21" id="Star_black" xmlns="http://www.w3.org/2000/svg"><path d="M10.28 1.213c.3-.92 1.601-.92 1.901 0l1.751 5.374a1 1 0 00.95.69h5.662c.969 0 1.371 1.242.586 1.81l-4.575 3.315a1 1 0 00-.364 1.12l1.749 5.366c.3.921-.753 1.688-1.538 1.12l-4.585-3.322a1 1 0 00-1.174 0l-4.585 3.322c-.784.568-1.838-.199-1.538-1.12l1.749-5.366a1 1 0 00-.364-1.12L1.33 9.087c-.785-.568-.383-1.81.587-1.81h5.66a1 1 0 00.951-.69l1.751-5.374z" fill="#000"/></svg><svg fill="none" viewBox="0 0 40 40" id="instagram" xmlns="http://www.w3.org/2000/svg"><path d="M11.356.01C5.105.01 0 5.23 0 11.622v16.783c0 6.383 5.105 11.593 11.356 11.593h16.415c6.242 0 11.337-5.22 11.337-11.612V11.612C39.108 5.22 34.013 0 27.761 0H11.356v.01zm0 3.076h16.405c4.625 0 8.339 3.797 8.339 8.536v16.774c0 4.739-3.714 8.536-8.33 8.536H11.357c-4.634 0-8.348-3.797-8.348-8.517V11.63c.01-4.748 3.723-8.545 8.348-8.545zm20.24 3.076c-.836 0-1.503.682-1.503 1.538 0 .855.667 1.538 1.504 1.538S33.1 8.555 33.1 7.7c0-.856-.667-1.538-1.504-1.538zM19.565 9.238c-5.791 0-10.53 4.845-10.53 10.766s4.739 10.766 10.53 10.766c5.79 0 10.529-4.845 10.529-10.766 0-5.922-4.738-10.766-10.53-10.766zm0 3.076c4.174 0 7.52 3.422 7.52 7.69 0 4.268-3.346 7.69-7.52 7.69-4.175 0-7.521-3.422-7.521-7.69 0-4.268 3.347-7.69 7.52-7.69z" fill="#090909"/></svg><svg fill="none" viewBox="0 0 42 42" id="linkedIn" xmlns="http://www.w3.org/2000/svg"><path d="M35.283.86h-28.4C3.64.86 1 3.491 1 6.726V35.05c0 3.236 2.64 5.869 5.884 5.869h28.399c3.244 0 5.884-2.633 5.884-5.869V6.727c0-3.235-2.64-5.868-5.884-5.868zm3.53 34.19a3.53 3.53 0 01-3.53 3.521h-28.4a3.53 3.53 0 01-3.53-3.52V6.726a3.53 3.53 0 013.53-3.52h28.4a3.53 3.53 0 013.53 3.52V35.05z" fill="#000" stroke="#000" stroke-width=".5"/><path d="M32.128 29.895h-4.312v-.198-7.003c0-.497-.036-.988-.161-1.473-.515-1.998-2.741-1.881-3.627-.934-.445.476-.735 1.014-.748 1.679-.003.158-.012.316-.012.474v7.454h-4.304V16.53h4.302v1.793l.034.015.092-.125c.432-.599.927-1.13 1.585-1.488.736-.402 1.53-.536 2.356-.512.895.026 1.745.227 2.51.709.98.617 1.579 1.52 1.929 2.604.273.844.362 1.716.363 2.598.002 2.538 0 5.077 0 7.616 0 .05-.004.1-.007.156zM16.334 29.903h-4.28V16.525h4.28v13.378zM14.377 9.873c1.348-.002 2.302.957 2.306 2.318.005 1.346-.964 2.3-2.338 2.3-1.34 0-2.297-.958-2.3-2.306-.002-1.348.968-2.31 2.332-2.312z" fill="#000"/></svg></svg>